<?xml version="1.0" encoding="UTF-8"?>
<svg version="1.1" xmlns="http://www.w3.org/2000/svg" width="512" height="512">
<path d="M0 0 C3.98159814 3.2152363 7.64175285 6.75646315 11.29052734 10.33935547 C13.76738022 12.74546133 16.30621796 15.08259785 18.84155273 17.42675781 C24.08823985 22.2802521 29.24647537 27.19169383 34.2578125 32.2890625 C36.04819493 34.04733044 37.90584233 35.68150368 39.8125 37.3125 C43.20195583 40.22250432 46.364518 43.32159559 49.5 46.5 C53.18993853 50.24031312 56.97503694 53.78239347 60.97265625 57.19140625 C63.41428634 59.36958492 65.70048032 61.67248008 68 64 C70.85523683 66.88989828 73.71500196 69.68451745 76.8125 72.3125 C91.51479629 85.01265432 104.09734816 98.97463425 107 119 C108.37775394 138.90951468 105.11666243 156.78017693 92.796875 172.87890625 C90.62267844 175.36858937 88.36917911 177.69617756 86 180 C85.31421875 180.70640625 84.6284375 181.4128125 83.921875 182.140625 C72.89985042 192.83607107 58.4030004 197.83673736 43.25 198.5 C27.00682078 198.10301802 10.97855258 193.27833061 -4.71774292 189.40625 C-21.99226427 185.15219537 -38.18958796 181.79652278 -56.0625 181.625 C-57.17407471 181.61082031 -58.28564941 181.59664062 -59.4309082 181.58203125 C-75.79990851 181.67734532 -91.32895866 185.64302887 -107 190 C-138.2084879 198.67679933 -138.2084879 198.67679933 -154.3125 198.375 C-155.1473291 198.36412354 -155.9821582 198.35324707 -156.84228516 198.34204102 C-174.24948878 197.89669356 -188.86742693 191.53417392 -201 179 C-201.71929687 178.26652344 -202.43859375 177.53304687 -203.1796875 176.77734375 C-217.05605571 161.93224795 -221.55398739 144.34755948 -221.27734375 124.453125 C-220.64732014 106.41125476 -212.27025408 93.44808385 -200 81 C-199.23598877 80.21544434 -199.23598877 80.21544434 -198.45654297 79.41503906 C-193.15689906 73.97720148 -187.77967968 68.69640802 -181.9921875 63.7734375 C-178.65542231 60.80306221 -175.57221824 57.57918589 -172.43359375 54.40234375 C-170.36757635 52.36285627 -168.26994451 50.444922 -166.0625 48.5625 C-162.71074927 45.69827665 -159.59443244 42.63666284 -156.5 39.5 C-152.81005412 35.75969662 -149.02496302 32.2176065 -145.02734375 28.80859375 C-142.58571366 26.63041508 -140.29951968 24.32751992 -138 22 C-134.48721185 18.44978488 -130.9136593 15.07348541 -127.109375 11.83984375 C-125.54393553 10.47443266 -124.01831921 9.06308138 -122.515625 7.62890625 C-89.2400214 -23.96368272 -37.0521471 -27.16610508 0 0 Z " fill="#CDB891" transform="translate(313,260)"/>
<path d="M0 0 C15.09386608 14.04285225 20.94625136 37.2821296 21.84448242 57.04321289 C22.18464221 70.00284729 21.55563496 82.02964095 17.46557617 94.36352539 C17.25658691 95.00676758 17.04759766 95.65000977 16.83227539 96.31274414 C11.14733164 113.38035056 0.72274574 128.0927873 -15.53442383 136.36352539 C-26.90752296 141.44470057 -37.63375175 141.66548363 -49.39770508 137.68383789 C-65.21397155 131.02643058 -75.80295349 116.63587098 -82.40942383 101.29321289 C-92.69072342 74.51899519 -91.65401711 44.58660561 -80.06567383 18.33618164 C-72.79103917 4.21374039 -62.59453621 -6.8396043 -47.53442383 -12.63647461 C-29.65677757 -18.05242354 -13.69099787 -11.55615965 0 0 Z " fill="#CDB891" transform="translate(359.534423828125,68.636474609375)"/>
<path d="M0 0 C16.26935131 17.06375323 22.37120145 42.2986347 21.9609375 65.35546875 C20.52572699 90.66049609 12.35376073 112.83273156 -6.5390625 130.125 C-16.0727752 138.09221927 -26.93796834 140.85913551 -39.1875 139.97265625 C-53.7117213 137.43889786 -64.6213875 129.29742476 -73.4375 117.66015625 C-88.83836001 95.25608827 -92.56511492 67.85058431 -88.0625 41.28515625 C-83.76790554 22.36084515 -75.54386674 3.62635833 -58.93359375 -7.421875 C-38.31433184 -19.47666397 -17.410476 -16.13578044 0 0 Z " fill="#CDB891" transform="translate(220.1875,69.02734375)"/>
<path d="M0 0 C10.39306477 9.31986786 16.13221633 24.09131733 17.15844727 37.83374023 C18.14372517 65.19768973 13.56075679 92.04548951 -5.3125 113.1875 C-14.33781889 122.84407938 -24.77436498 128.72849082 -38.125 129.25 C-49.13506415 128.8318963 -58.21802501 124.19491222 -65.75 116.25 C-77.79975649 101.54426471 -80.19975611 82.40363814 -78.61572266 64.0300293 C-76.51421073 44.12534385 -70.08136748 23.67735708 -56.0625 8.875 C-55.42699219 8.16214844 -54.79148437 7.44929687 -54.13671875 6.71484375 C-38.9829817 -9.53214888 -18.2691133 -12.67652759 0 0 Z " fill="#CDB891" transform="translate(471.0625,166.125)"/>
<path d="M0 0 C20.75158471 15.89055113 29.77089634 38.41514233 33.28515625 63.65625 C34.91633814 81.20551725 32.75848739 101.2578644 21.6875 115.59765625 C14.46885094 123.84961999 7.44381333 128.97030379 -3.67578125 130.1875 C-17.35002609 130.66572496 -27.68124239 125.86405918 -37.59375 116.62890625 C-56.60622474 96.80254132 -62.76395638 69.41647795 -62.45703125 42.8203125 C-62.08213453 27.99464226 -57.56233416 13.32965053 -47.05078125 2.421875 C-33.45914643 -9.72509582 -14.98052044 -10.03368191 0 0 Z " fill="#CDB891" transform="translate(86.25,165.1875)"/>
</svg>
