<?xml version="1.0" encoding="UTF-8"?> <svg xmlns="http://www.w3.org/2000/svg" xmlns:xlink="http://www.w3.org/1999/xlink" version="1.1" id="Layer_1" x="0px" y="0px" viewBox="0 0 32 32" style="enable-background:new 0 0 32 32;" xml:space="preserve"> <style type="text/css"> .st0{fill:#FFFFFF;} .st1{fill:url(#Exclusion_5_1_);} </style> <circle class="st0" cx="16.2" cy="16" r="14.7"></circle> <linearGradient id="Exclusion_5_1_" gradientUnits="userSpaceOnUse" x1="-122.9577" y1="287.8546" x2="-121.8777" y2="288.9356" gradientTransform="matrix(32.001 0 0 -32.0001 3937.123 9241.042)"> <stop offset="1.000000e-03" style="stop-color:#FBE18A"></stop> <stop offset="0.209" style="stop-color:#FCBB45"></stop> <stop offset="0.377" style="stop-color:#F75274"></stop> <stop offset="0.524" style="stop-color:#D53692"></stop> <stop offset="0.739" style="stop-color:#8F39CE"></stop> <stop offset="1" style="stop-color:#5B4FE9"></stop> </linearGradient> <path id="Exclusion_5" class="st1" d="M16,32c-4.2,0-8.3-1.7-11.3-4.7C1.7,24.3,0,20.2,0,16c0-4.2,1.7-8.3,4.7-11.3 C7.7,1.7,11.8,0,16,0c4.2,0,8.3,1.7,11.3,4.7c3,3,4.7,7.1,4.7,11.3c0,4.2-1.7,8.3-4.7,11.3C24.3,30.3,20.2,32,16,32z M11.8,5.4 c-3.5,0-6.4,2.9-6.4,6.4v8.5c0,3.5,2.9,6.4,6.4,6.4h8.5c3.5,0,6.4-2.9,6.4-6.4v-8.5c0-1.7-0.7-3.3-1.9-4.5c-1.2-1.2-2.8-1.9-4.5-1.9 L11.8,5.4z M20.3,24.6h-8.5c-2.4,0-4.4-2-4.4-4.4v-8.5c0-2.4,2-4.4,4.4-4.4h8.5c2.4,0,4.4,2,4.4,4.4v8.5 C24.7,22.7,22.7,24.6,20.3,24.6L20.3,24.6z M16.2,10.8c-2.9,0-5.2,2.3-5.2,5.2c0,2.9,2.3,5.2,5.2,5.2c1.4,0,2.7-0.6,3.7-1.5 c1-1,1.5-2.3,1.5-3.7C21.4,13.1,19,10.8,16.2,10.8L16.2,10.8z M21.7,9.2c-0.7,0-1.2,0.6-1.2,1.2c0,0.7,0.6,1.2,1.2,1.2 c0.7,0,1.2-0.6,1.2-1.2C22.9,9.7,22.3,9.2,21.7,9.2L21.7,9.2z M16.2,19.3c-0.9,0-1.7-0.4-2.4-1c-0.6-0.6-1-1.5-1-2.4 c0-0.9,0.4-1.7,1-2.4c0.6-0.6,1.5-1,2.4-1c0.9,0,1.7,0.4,2.4,1c0.6,0.6,1,1.5,1,2.4C19.5,17.8,18,19.3,16.2,19.3L16.2,19.3z"></path> </svg> 